<?xml version="1.0" encoding="utf-8"?>
<!-- Generator: Adobe Illustrator 21.0.2, SVG Export Plug-In . SVG Version: 6.00 Build 0)  -->
<svg version="1.1" id="Layer_1" xmlns="http://www.w3.org/2000/svg" xmlns:xlink="http://www.w3.org/1999/xlink" x="0px" y="0px"
	 viewBox="0 0 100 100" style="enable-background:new 0 0 100 100;" xml:space="preserve">
<path d="M85,28L85,28L62,5H27c-6.6,0-12,5.4-12,12v66c0,6.6,5.4,12,12,12h46c6.6,0,12-5.4,12-12L85,28L85,28z M77.5,27.5H73
	c-5.2,0-9.5-4.3-9.5-9.5l-0.2-4.7L77.5,27.5z M80,83c0,3.9-3.1,7-7,7H27c-3.9,0-7-3.1-7-7V17c0-3.9,3.1-7,7-7h31.1l0.4,8.1
	c0,8,6.5,14.4,14.5,14.4h7V83z"/>
</svg>
